<svg width="315" height="30" viewBox="0 0 315 30" fill="none" xmlns="http://www.w3.org/2000/svg">
<path d="M66.728 23.144C65.432 23.144 64.272 22.864 63.248 22.304C62.24 21.744 61.448 20.976 60.872 20C60.296 19.024 60.008 17.904 60.008 16.64C60.008 15.376 60.296 14.256 60.872 13.28C61.448 12.304 62.24 11.544 63.248 11C64.272 10.44 65.432 10.16 66.728 10.16C67.88 10.16 68.904 10.392 69.8 10.856C70.712 11.304 71.416 11.976 71.912 12.872L70.16 14C69.744 13.376 69.232 12.92 68.624 12.632C68.032 12.328 67.392 12.176 66.704 12.176C65.872 12.176 65.128 12.36 64.472 12.728C63.816 13.096 63.296 13.616 62.912 14.288C62.528 14.944 62.336 15.728 62.336 16.64C62.336 17.552 62.528 18.344 62.912 19.016C63.296 19.688 63.816 20.208 64.472 20.576C65.128 20.944 65.872 21.128 66.704 21.128C67.392 21.128 68.032 20.984 68.624 20.696C69.232 20.392 69.744 19.928 70.16 19.304L71.912 20.408C71.416 21.288 70.712 21.968 69.8 22.448C68.904 22.912 67.88 23.144 66.728 23.144ZM74.7309 23V10.28H77.0349V23H74.7309ZM75.8829 7.832C75.4349 7.832 75.0589 7.688 74.7549 7.4C74.4669 7.112 74.3229 6.76 74.3229 6.344C74.3229 5.912 74.4669 5.552 74.7549 5.264C75.0589 4.976 75.4349 4.832 75.8829 4.832C76.3309 4.832 76.6989 4.976 76.9869 5.264C77.2909 5.536 77.4429 5.88 77.4429 6.296C77.4429 6.728 77.2989 7.096 77.0109 7.4C76.7229 7.688 76.3469 7.832 75.8829 7.832ZM88.226 10.16C89.266 10.16 90.178 10.36 90.962 10.76C91.762 11.16 92.386 11.768 92.834 12.584C93.282 13.4 93.506 14.432 93.506 15.68V23H91.202V15.944C91.202 14.712 90.898 13.784 90.29 13.16C89.698 12.536 88.858 12.224 87.77 12.224C86.954 12.224 86.242 12.384 85.634 12.704C85.026 13.024 84.554 13.496 84.218 14.12C83.898 14.744 83.738 15.52 83.738 16.448V23H81.434V10.28H83.642V13.712L83.282 12.8C83.698 11.968 84.338 11.32 85.202 10.856C86.066 10.392 87.074 10.16 88.226 10.16ZM103.434 23.144C102.074 23.144 100.874 22.864 99.8339 22.304C98.8099 21.744 98.0099 20.976 97.4339 20C96.8739 19.024 96.5939 17.904 96.5939 16.64C96.5939 15.376 96.8659 14.256 97.4099 13.28C97.9699 12.304 98.7299 11.544 99.6899 11C100.666 10.44 101.762 10.16 102.978 10.16C104.21 10.16 105.298 10.432 106.242 10.976C107.186 11.52 107.922 12.288 108.45 13.28C108.994 14.256 109.266 15.4 109.266 16.712C109.266 16.808 109.258 16.92 109.242 17.048C109.242 17.176 109.234 17.296 109.218 17.408H98.3939V15.752H108.018L107.082 16.328C107.098 15.512 106.93 14.784 106.578 14.144C106.226 13.504 105.738 13.008 105.114 12.656C104.506 12.288 103.794 12.104 102.978 12.104C102.178 12.104 101.466 12.288 100.842 12.656C100.218 13.008 99.7299 13.512 99.3779 14.168C99.0259 14.808 98.8499 15.544 98.8499 16.376V16.76C98.8499 17.608 99.0419 18.368 99.4259 19.04C99.8259 19.696 100.378 20.208 101.082 20.576C101.786 20.944 102.594 21.128 103.506 21.128C104.258 21.128 104.938 21 105.546 20.744C106.17 20.488 106.714 20.104 107.178 19.592L108.45 21.08C107.874 21.752 107.154 22.264 106.29 22.616C105.442 22.968 104.49 23.144 103.434 23.144ZM128.377 10.16C129.401 10.16 130.305 10.36 131.089 10.76C131.873 11.16 132.481 11.768 132.913 12.584C133.361 13.4 133.585 14.432 133.585 15.68V23H131.281V15.944C131.281 14.712 130.993 13.784 130.417 13.16C129.841 12.536 129.033 12.224 127.993 12.224C127.225 12.224 126.553 12.384 125.977 12.704C125.401 13.024 124.953 13.496 124.633 14.12C124.329 14.744 124.177 15.52 124.177 16.448V23H121.873V15.944C121.873 14.712 121.585 13.784 121.009 13.16C120.449 12.536 119.641 12.224 118.585 12.224C117.833 12.224 117.169 12.384 116.593 12.704C116.017 13.024 115.569 13.496 115.249 14.12C114.929 14.744 114.769 15.52 114.769 16.448V23H112.465V10.28H114.673V13.664L114.313 12.8C114.713 11.968 115.329 11.32 116.161 10.856C116.993 10.392 117.961 10.16 119.065 10.16C120.281 10.16 121.329 10.464 122.209 11.072C123.089 11.664 123.665 12.568 123.937 13.784L123.001 13.4C123.385 12.424 124.057 11.64 125.017 11.048C125.977 10.456 127.097 10.16 128.377 10.16ZM145.721 23V20.312L145.601 19.808V15.224C145.601 14.248 145.313 13.496 144.737 12.968C144.177 12.424 143.329 12.152 142.193 12.152C141.441 12.152 140.705 12.28 139.985 12.536C139.265 12.776 138.657 13.104 138.161 13.52L137.201 11.792C137.857 11.264 138.641 10.864 139.553 10.592C140.481 10.304 141.449 10.16 142.457 10.16C144.201 10.16 145.545 10.584 146.489 11.432C147.433 12.28 147.905 13.576 147.905 15.32V23H145.721ZM141.545 23.144C140.601 23.144 139.769 22.984 139.049 22.664C138.345 22.344 137.801 21.904 137.417 21.344C137.033 20.768 136.841 20.12 136.841 19.4C136.841 18.712 137.001 18.088 137.321 17.528C137.657 16.968 138.193 16.52 138.929 16.184C139.681 15.848 140.689 15.68 141.953 15.68H145.985V17.336H142.049C140.897 17.336 140.121 17.528 139.721 17.912C139.321 18.296 139.121 18.76 139.121 19.304C139.121 19.928 139.369 20.432 139.865 20.816C140.361 21.184 141.049 21.368 141.929 21.368C142.793 21.368 143.545 21.176 144.185 20.792C144.841 20.408 145.313 19.848 145.601 19.112L146.057 20.696C145.753 21.448 145.217 22.048 144.449 22.496C143.681 22.928 142.713 23.144 141.545 23.144ZM156.536 23.144C155.256 23.144 154.264 22.8 153.56 22.112C152.856 21.424 152.504 20.44 152.504 19.16V7.496H154.808V19.064C154.808 19.752 154.976 20.28 155.312 20.648C155.664 21.016 156.16 21.2 156.8 21.2C157.52 21.2 158.12 21 158.6 20.6L159.32 22.256C158.968 22.56 158.544 22.784 158.048 22.928C157.568 23.072 157.064 23.144 156.536 23.144ZM150.344 12.176V10.28H158.456V12.176H150.344ZM162.106 23V10.28H164.41V23H162.106ZM163.258 7.832C162.81 7.832 162.434 7.688 162.13 7.4C161.842 7.112 161.698 6.76 161.698 6.344C161.698 5.912 161.842 5.552 162.13 5.264C162.434 4.976 162.81 4.832 163.258 4.832C163.706 4.832 164.074 4.976 164.362 5.264C164.666 5.536 164.818 5.88 164.818 6.296C164.818 6.728 164.674 7.096 164.386 7.4C164.098 7.688 163.722 7.832 163.258 7.832ZM174.353 23.144C173.057 23.144 171.897 22.864 170.873 22.304C169.865 21.744 169.073 20.976 168.497 20C167.921 19.024 167.633 17.904 167.633 16.64C167.633 15.376 167.921 14.256 168.497 13.28C169.073 12.304 169.865 11.544 170.873 11C171.897 10.44 173.057 10.16 174.353 10.16C175.505 10.16 176.529 10.392 177.425 10.856C178.337 11.304 179.041 11.976 179.537 12.872L177.785 14C177.369 13.376 176.857 12.92 176.249 12.632C175.657 12.328 175.017 12.176 174.329 12.176C173.497 12.176 172.753 12.36 172.097 12.728C171.441 13.096 170.921 13.616 170.537 14.288C170.153 14.944 169.961 15.728 169.961 16.64C169.961 17.552 170.153 18.344 170.537 19.016C170.921 19.688 171.441 20.208 172.097 20.576C172.753 20.944 173.497 21.128 174.329 21.128C175.017 21.128 175.657 20.984 176.249 20.696C176.857 20.392 177.369 19.928 177.785 19.304L179.537 20.408C179.041 21.288 178.337 21.968 177.425 22.448C176.529 22.912 175.505 23.144 174.353 23.144ZM190.44 23.192C189.144 23.192 187.952 22.984 186.864 22.568C185.776 22.136 184.832 21.536 184.032 20.768C183.232 19.984 182.608 19.072 182.16 18.032C181.712 16.992 181.488 15.848 181.488 14.6C181.488 13.352 181.712 12.208 182.16 11.168C182.608 10.128 183.232 9.224 184.032 8.456C184.848 7.672 185.8 7.072 186.888 6.656C187.976 6.224 189.176 6.008 190.488 6.008C191.816 6.008 193.032 6.224 194.136 6.656C195.24 7.088 196.176 7.736 196.944 8.6L195.456 10.088C194.768 9.416 194.016 8.928 193.2 8.624C192.4 8.304 191.528 8.144 190.584 8.144C189.624 8.144 188.728 8.304 187.896 8.624C187.08 8.944 186.368 9.392 185.76 9.968C185.168 10.544 184.704 11.232 184.368 12.032C184.048 12.816 183.888 13.672 183.888 14.6C183.888 15.512 184.048 16.368 184.368 17.168C184.704 17.952 185.168 18.64 185.76 19.232C186.368 19.808 187.08 20.256 187.896 20.576C188.712 20.896 189.6 21.056 190.56 21.056C191.456 21.056 192.312 20.92 193.128 20.648C193.96 20.36 194.728 19.888 195.432 19.232L196.8 21.056C195.968 21.76 194.992 22.296 193.872 22.664C192.768 23.016 191.624 23.192 190.44 23.192ZM194.496 20.744V14.504H196.8V21.056L194.496 20.744ZM206.411 23.144C205.323 23.144 204.363 22.944 203.531 22.544C202.715 22.144 202.075 21.536 201.611 20.72C201.163 19.888 200.939 18.848 200.939 17.6V10.28H203.243V17.336C203.243 18.584 203.539 19.52 204.131 20.144C204.739 20.768 205.587 21.08 206.675 21.08C207.475 21.08 208.171 20.92 208.763 20.6C209.355 20.264 209.811 19.784 210.131 19.16C210.451 18.52 210.611 17.752 210.611 16.856V10.28H212.915V23H210.731V19.568L211.091 20.48C210.675 21.328 210.051 21.984 209.219 22.448C208.387 22.912 207.451 23.144 206.411 23.144ZM217.301 23V10.28H219.605V23H217.301ZM218.453 7.832C218.005 7.832 217.629 7.688 217.325 7.4C217.037 7.112 216.893 6.76 216.893 6.344C216.893 5.912 217.037 5.552 217.325 5.264C217.629 4.976 218.005 4.832 218.453 4.832C218.901 4.832 219.269 4.976 219.557 5.264C219.861 5.536 220.013 5.88 220.013 6.296C220.013 6.728 219.869 7.096 219.581 7.4C219.293 7.688 218.917 7.832 218.453 7.832ZM229.26 23.144C228.028 23.144 226.924 22.872 225.948 22.328C224.988 21.784 224.228 21.024 223.668 20.048C223.108 19.072 222.828 17.936 222.828 16.64C222.828 15.344 223.108 14.216 223.668 13.256C224.228 12.28 224.988 11.52 225.948 10.976C226.924 10.432 228.028 10.16 229.26 10.16C230.332 10.16 231.3 10.4 232.164 10.88C233.028 11.36 233.716 12.08 234.228 13.04C234.756 14 235.02 15.2 235.02 16.64C235.02 18.08 234.764 19.28 234.252 20.24C233.756 21.2 233.076 21.928 232.212 22.424C231.348 22.904 230.364 23.144 229.26 23.144ZM229.452 21.128C230.252 21.128 230.972 20.944 231.612 20.576C232.268 20.208 232.78 19.688 233.148 19.016C233.532 18.328 233.724 17.536 233.724 16.64C233.724 15.728 233.532 14.944 233.148 14.288C232.78 13.616 232.268 13.096 231.612 12.728C230.972 12.36 230.252 12.176 229.452 12.176C228.636 12.176 227.908 12.36 227.268 12.728C226.628 13.096 226.116 13.616 225.732 14.288C225.348 14.944 225.156 15.728 225.156 16.64C225.156 17.536 225.348 18.328 225.732 19.016C226.116 19.688 226.628 20.208 227.268 20.576C227.908 20.944 228.636 21.128 229.452 21.128ZM233.796 23V19.568L233.94 16.616L233.7 13.664V5.192H236.004V23H233.796ZM246.028 23.144C244.668 23.144 243.468 22.864 242.428 22.304C241.404 21.744 240.604 20.976 240.028 20C239.468 19.024 239.188 17.904 239.188 16.64C239.188 15.376 239.46 14.256 240.004 13.28C240.564 12.304 241.324 11.544 242.284 11C243.26 10.44 244.356 10.16 245.572 10.16C246.804 10.16 247.892 10.432 248.836 10.976C249.78 11.52 250.516 12.288 251.044 13.28C251.588 14.256 251.86 15.4 251.86 16.712C251.86 16.808 251.852 16.92 251.836 17.048C251.836 17.176 251.828 17.296 251.812 17.408H240.988V15.752H250.612L249.676 16.328C249.692 15.512 249.524 14.784 249.172 14.144C248.82 13.504 248.332 13.008 247.708 12.656C247.1 12.288 246.388 12.104 245.572 12.104C244.772 12.104 244.06 12.288 243.436 12.656C242.812 13.008 242.324 13.512 241.972 14.168C241.62 14.808 241.444 15.544 241.444 16.376V16.76C241.444 17.608 241.636 18.368 242.02 19.04C242.42 19.696 242.972 20.208 243.676 20.576C244.38 20.944 245.188 21.128 246.1 21.128C246.852 21.128 247.532 21 248.14 20.744C248.764 20.488 249.308 20.104 249.772 19.592L251.044 21.08C250.468 21.752 249.748 22.264 248.884 22.616C248.036 22.968 247.084 23.144 246.028 23.144ZM261.803 23.144C260.715 23.144 259.731 22.904 258.851 22.424C257.987 21.928 257.299 21.2 256.787 20.24C256.291 19.28 256.043 18.08 256.043 16.64C256.043 15.2 256.299 14 256.811 13.04C257.339 12.08 258.035 11.36 258.899 10.88C259.779 10.4 260.747 10.16 261.803 10.16C263.051 10.16 264.155 10.432 265.115 10.976C266.075 11.52 266.835 12.28 267.395 13.256C267.955 14.216 268.235 15.344 268.235 16.64C268.235 17.936 267.955 19.072 267.395 20.048C266.835 21.024 266.075 21.784 265.115 22.328C264.155 22.872 263.051 23.144 261.803 23.144ZM255.059 23V5.192H257.363V13.664L257.123 16.616L257.267 19.568V23H255.059ZM261.611 21.128C262.427 21.128 263.155 20.944 263.795 20.576C264.451 20.208 264.963 19.688 265.331 19.016C265.715 18.328 265.907 17.536 265.907 16.64C265.907 15.728 265.715 14.944 265.331 14.288C264.963 13.616 264.451 13.096 263.795 12.728C263.155 12.36 262.427 12.176 261.611 12.176C260.811 12.176 260.083 12.36 259.427 12.728C258.787 13.096 258.275 13.616 257.891 14.288C257.523 14.944 257.339 15.728 257.339 16.64C257.339 17.536 257.523 18.328 257.891 19.016C258.275 19.688 258.787 20.208 259.427 20.576C260.083 20.944 260.811 21.128 261.611 21.128ZM276.866 23.144C275.586 23.144 274.45 22.864 273.458 22.304C272.466 21.744 271.682 20.976 271.106 20C270.53 19.008 270.242 17.888 270.242 16.64C270.242 15.376 270.53 14.256 271.106 13.28C271.682 12.304 272.466 11.544 273.458 11C274.45 10.44 275.586 10.16 276.866 10.16C278.13 10.16 279.258 10.44 280.25 11C281.258 11.544 282.042 12.304 282.602 13.28C283.178 14.24 283.466 15.36 283.466 16.64C283.466 17.904 283.178 19.024 282.602 20C282.042 20.976 281.258 21.744 280.25 22.304C279.258 22.864 278.13 23.144 276.866 23.144ZM276.866 21.128C277.682 21.128 278.41 20.944 279.05 20.576C279.706 20.208 280.218 19.688 280.586 19.016C280.954 18.328 281.138 17.536 281.138 16.64C281.138 15.728 280.954 14.944 280.586 14.288C280.218 13.616 279.706 13.096 279.05 12.728C278.41 12.36 277.682 12.176 276.866 12.176C276.05 12.176 275.322 12.36 274.682 12.728C274.042 13.096 273.53 13.616 273.146 14.288C272.762 14.944 272.57 15.728 272.57 16.64C272.57 17.536 272.762 18.328 273.146 19.016C273.53 19.688 274.042 20.208 274.682 20.576C275.322 20.944 276.05 21.128 276.866 21.128ZM292.101 23.144C290.821 23.144 289.685 22.864 288.693 22.304C287.701 21.744 286.917 20.976 286.341 20C285.765 19.008 285.477 17.888 285.477 16.64C285.477 15.376 285.765 14.256 286.341 13.28C286.917 12.304 287.701 11.544 288.693 11C289.685 10.44 290.821 10.16 292.101 10.16C293.365 10.16 294.493 10.44 295.485 11C296.493 11.544 297.277 12.304 297.837 13.28C298.413 14.24 298.701 15.36 298.701 16.64C298.701 17.904 298.413 19.024 297.837 20C297.277 20.976 296.493 21.744 295.485 22.304C294.493 22.864 293.365 23.144 292.101 23.144ZM292.101 21.128C292.917 21.128 293.645 20.944 294.285 20.576C294.941 20.208 295.453 19.688 295.821 19.016C296.189 18.328 296.373 17.536 296.373 16.64C296.373 15.728 296.189 14.944 295.821 14.288C295.453 13.616 294.941 13.096 294.285 12.728C293.645 12.36 292.917 12.176 292.101 12.176C291.285 12.176 290.557 12.36 289.917 12.728C289.277 13.096 288.765 13.616 288.381 14.288C287.997 14.944 287.805 15.728 287.805 16.64C287.805 17.536 287.997 18.328 288.381 19.016C288.765 19.688 289.277 20.208 289.917 20.576C290.557 20.944 291.285 21.128 292.101 21.128ZM303.759 19.928L303.807 16.976L311.127 10.28H313.911L308.295 15.8L307.047 16.856L303.759 19.928ZM301.887 23V5.192H304.191V23H301.887ZM311.607 23L306.615 16.808L308.103 14.96L314.439 23H311.607Z" fill="white"/>
<path d="M36.0868 17.7782L35.66 17.3514V17.955V26.9325C35.66 28.4702 34.4552 29.675 32.9175 29.675H2.9925C1.51136 29.675 0.25 28.467 0.25 26.9325V2.9925C0.25 1.51136 1.45801 0.25 2.9925 0.25H32.9175C34.4552 0.25 35.66 1.45477 35.66 2.9925V11.97V12.5736L36.0868 12.1468L41.9986 6.235H47.63V23.69H41.9986L36.0868 17.7782Z" fill="black" stroke="white" stroke-width="0.5"/>
<path d="M11 8V23L26 15.5L11 8Z" fill="#ECECEC"/>
</svg>
