<svg width="255" height="20" viewBox="0 0 255 20" fill="none" xmlns="http://www.w3.org/2000/svg">
  <path d="M6.728 19.144c-1.296 0-2.456-.28-3.48-.84A6.204 6.204 0 0 1 .872 16c-.576-.976-.864-2.096-.864-3.36 0-1.264.288-2.384.864-3.36A6.032 6.032 0 0 1 3.248 7c1.024-.56 2.184-.84 3.48-.84 1.152 0 2.176.232 3.072.696a4.763 4.763 0 0 1 2.112 2.016L10.16 10c-.416-.624-.928-1.08-1.536-1.368a4.142 4.142 0 0 0-1.92-.456c-.832 0-1.576.184-2.232.552a4.06 4.06 0 0 0-1.56 1.56c-.384.656-.576 1.44-.576 2.352 0 .912.192 1.704.576 2.376a4.06 4.06 0 0 0 1.56 1.56c.656.368 1.4.552 2.232.552a4.33 4.33 0 0 0 1.92-.432c.608-.304 1.12-.768 1.536-1.392l1.752 1.104c-.496.88-1.2 1.56-2.112 2.04-.896.464-1.92.696-3.072.696ZM14.731 19V6.28h2.304V19H14.73Zm1.152-15.168c-.448 0-.824-.144-1.128-.432a1.436 1.436 0 0 1-.432-1.056c0-.432.144-.792.432-1.08.304-.288.68-.432 1.128-.432.448 0 .816.144 1.104.432.304.272.456.616.456 1.032 0 .432-.144.8-.432 1.104-.288.288-.664.432-1.128.432ZM28.226 6.16c1.04 0 1.952.2 2.736.6.8.4 1.424 1.008 1.872 1.824.448.816.672 1.848.672 3.096V19h-2.304v-7.056c0-1.232-.304-2.16-.912-2.784-.592-.624-1.432-.936-2.52-.936-.816 0-1.528.16-2.136.48-.608.32-1.08.792-1.416 1.416-.32.624-.48 1.4-.48 2.328V19h-2.304V6.28h2.208v3.432l-.36-.912c.416-.832 1.056-1.48 1.92-1.944.864-.464 1.872-.696 3.024-.696Zm15.208 12.984c-1.36 0-2.56-.28-3.6-.84a6.159 6.159 0 0 1-2.4-2.304c-.56-.976-.84-2.096-.84-3.36 0-1.264.272-2.384.816-3.36A6 6 0 0 1 39.69 7c.976-.56 2.072-.84 3.288-.84 1.232 0 2.32.272 3.264.816A5.676 5.676 0 0 1 48.45 9.28c.544.976.816 2.12.816 3.432 0 .096-.008.208-.024.336 0 .128-.008.248-.024.36H38.394v-1.656h9.624l-.936.576c.016-.816-.152-1.544-.504-2.184a3.743 3.743 0 0 0-1.464-1.488c-.608-.368-1.32-.552-2.136-.552-.8 0-1.512.184-2.136.552a3.705 3.705 0 0 0-1.464 1.512c-.352.64-.528 1.376-.528 2.208v.384c0 .848.192 1.608.576 2.28.4.656.952 1.168 1.656 1.536.704.368 1.512.552 2.424.552.752 0 1.432-.128 2.04-.384a4.47 4.47 0 0 0 1.632-1.152l1.272 1.488a5.554 5.554 0 0 1-2.16 1.536c-.848.352-1.8.528-2.856.528ZM68.377 6.16c1.024 0 1.928.2 2.712.6.784.4 1.392 1.008 1.824 1.824.448.816.672 1.848.672 3.096V19h-2.304v-7.056c0-1.232-.288-2.16-.864-2.784-.576-.624-1.384-.936-2.424-.936-.768 0-1.44.16-2.016.48a3.29 3.29 0 0 0-1.344 1.416c-.304.624-.456 1.4-.456 2.328V19h-2.304v-7.056c0-1.232-.288-2.16-.864-2.784-.56-.624-1.368-.936-2.424-.936-.752 0-1.416.16-1.992.48a3.29 3.29 0 0 0-1.344 1.416c-.32.624-.48 1.4-.48 2.328V19h-2.304V6.28h2.208v3.384l-.36-.864a4.338 4.338 0 0 1 1.848-1.944c.832-.464 1.8-.696 2.904-.696 1.216 0 2.264.304 3.144.912.88.592 1.456 1.496 1.728 2.712l-.936-.384c.384-.976 1.056-1.76 2.016-2.352.96-.592 2.08-.888 3.36-.888ZM85.721 19v-2.688l-.12-.504v-4.584c0-.976-.288-1.728-.864-2.256-.56-.544-1.408-.816-2.544-.816-.752 0-1.488.128-2.208.384-.72.24-1.328.568-1.824.984l-.96-1.728c.656-.528 1.44-.928 2.352-1.2a9.741 9.741 0 0 1 2.904-.432c1.744 0 3.088.424 4.032 1.272.944.848 1.416 2.144 1.416 3.888V19H85.72Zm-4.176.144c-.944 0-1.776-.16-2.496-.48-.704-.32-1.248-.76-1.632-1.32a3.426 3.426 0 0 1-.576-1.944c0-.688.16-1.312.48-1.872.336-.56.872-1.008 1.608-1.344.752-.336 1.76-.504 3.024-.504h4.032v1.656h-3.936c-1.152 0-1.928.192-2.328.576-.4.384-.6.848-.6 1.392 0 .624.248 1.128.744 1.512.496.368 1.184.552 2.064.552.864 0 1.616-.192 2.256-.576.656-.384 1.128-.944 1.416-1.68l.456 1.584c-.304.752-.84 1.352-1.608 1.8-.768.432-1.736.648-2.904.648Zm14.991 0c-1.28 0-2.272-.344-2.976-1.032-.704-.688-1.056-1.672-1.056-2.952V3.496h2.304v11.568c0 .688.168 1.216.504 1.584.352.368.848.552 1.488.552.72 0 1.32-.2 1.8-.6l.72 1.656a3.342 3.342 0 0 1-1.272.672c-.48.144-.984.216-1.512.216ZM90.344 8.176V6.28h8.112v1.896h-8.112ZM102.106 19V6.28h2.304V19h-2.304Zm1.152-15.168c-.448 0-.824-.144-1.128-.432a1.436 1.436 0 0 1-.432-1.056c0-.432.144-.792.432-1.08.304-.288.68-.432 1.128-.432.448 0 .816.144 1.104.432.304.272.456.616.456 1.032 0 .432-.144.8-.432 1.104-.288.288-.664.432-1.128.432Zm11.095 15.312c-1.296 0-2.456-.28-3.48-.84A6.204 6.204 0 0 1 108.497 16c-.576-.976-.864-2.096-.864-3.36 0-1.264.288-2.384.864-3.36A6.032 6.032 0 0 1 110.873 7c1.024-.56 2.184-.84 3.48-.84 1.152 0 2.176.232 3.072.696a4.763 4.763 0 0 1 2.112 2.016L117.785 10c-.416-.624-.928-1.08-1.536-1.368a4.142 4.142 0 0 0-1.92-.456c-.832 0-1.576.184-2.232.552a4.06 4.06 0 0 0-1.56 1.56c-.384.656-.576 1.44-.576 2.352 0 .912.192 1.704.576 2.376a4.06 4.06 0 0 0 1.56 1.56c.656.368 1.4.552 2.232.552a4.33 4.33 0 0 0 1.92-.432c.608-.304 1.12-.768 1.536-1.392l1.752 1.104c-.496.88-1.2 1.56-2.112 2.04-.896.464-1.92.696-3.072.696Zm16.087.048c-1.296 0-2.488-.208-3.576-.624a8.649 8.649 0 0 1-2.832-1.8 8.502 8.502 0 0 1-1.872-2.736c-.448-1.04-.672-2.184-.672-3.432 0-1.248.224-2.392.672-3.432a8.232 8.232 0 0 1 1.872-2.712 8.41 8.41 0 0 1 2.856-1.8c1.088-.432 2.288-.648 3.6-.648 1.328 0 2.544.216 3.648.648a7.217 7.217 0 0 1 2.808 1.944l-1.488 1.488c-.688-.672-1.44-1.16-2.256-1.464a6.98 6.98 0 0 0-2.616-.48c-.96 0-1.856.16-2.688.48a6.544 6.544 0 0 0-2.136 1.344 6.184 6.184 0 0 0-1.392 2.064c-.32.784-.48 1.64-.48 2.568 0 .912.16 1.768.48 2.568.336.784.8 1.472 1.392 2.064a6.544 6.544 0 0 0 2.136 1.344c.816.32 1.704.48 2.664.48.896 0 1.752-.136 2.568-.408.832-.288 1.6-.76 2.304-1.416l1.368 1.824c-.832.704-1.808 1.24-2.928 1.608a11.23 11.23 0 0 1-3.432.528Zm4.056-2.448v-6.24h2.304v6.552l-2.304-.312Zm11.915 2.4c-1.088 0-2.048-.2-2.88-.6a4.399 4.399 0 0 1-1.92-1.824c-.448-.832-.672-1.872-.672-3.12V6.28h2.304v7.056c0 1.248.296 2.184.888 2.808.608.624 1.456.936 2.544.936.8 0 1.496-.16 2.088-.48a3.398 3.398 0 0 0 1.368-1.44c.32-.64.48-1.408.48-2.304V6.28h2.304V19h-2.184v-3.432l.36.912a4.45 4.45 0 0 1-1.872 1.968c-.832.464-1.768.696-2.808.696Zm10.89-.144V6.28h2.304V19h-2.304Zm1.152-15.168c-.448 0-.824-.144-1.128-.432a1.436 1.436 0 0 1-.432-1.056c0-.432.144-.792.432-1.08.304-.288.68-.432 1.128-.432.448 0 .816.144 1.104.432.304.272.456.616.456 1.032 0 .432-.144.8-.432 1.104-.288.288-.664.432-1.128.432Zm10.807 15.312c-1.232 0-2.336-.272-3.312-.816a6 6 0 0 1-2.28-2.28c-.56-.976-.84-2.112-.84-3.408 0-1.296.28-2.424.84-3.384a6 6 0 0 1 2.28-2.28c.976-.544 2.08-.816 3.312-.816 1.072 0 2.04.24 2.904.72.864.48 1.552 1.2 2.064 2.16.528.96.792 2.16.792 3.6s-.256 2.64-.768 3.6c-.496.96-1.176 1.688-2.04 2.184-.864.48-1.848.72-2.952.72Zm.192-2.016c.8 0 1.52-.184 2.16-.552a3.896 3.896 0 0 0 1.536-1.56c.384-.688.576-1.48.576-2.376 0-.912-.192-1.696-.576-2.352a3.896 3.896 0 0 0-1.536-1.56c-.64-.368-1.36-.552-2.16-.552-.816 0-1.544.184-2.184.552a4.111 4.111 0 0 0-1.536 1.56c-.384.656-.576 1.44-.576 2.352 0 .896.192 1.688.576 2.376a4.111 4.111 0 0 0 1.536 1.56c.64.368 1.368.552 2.184.552ZM173.796 19v-3.432l.144-2.952-.24-2.952V1.192h2.304V19h-2.208Zm12.232.144c-1.36 0-2.56-.28-3.6-.84a6.159 6.159 0 0 1-2.4-2.304c-.56-.976-.84-2.096-.84-3.36 0-1.264.272-2.384.816-3.36a6 6 0 0 1 2.28-2.28c.976-.56 2.072-.84 3.288-.84 1.232 0 2.32.272 3.264.816a5.676 5.676 0 0 1 2.208 2.304c.544.976.816 2.12.816 3.432 0 .096-.008.208-.024.336 0 .128-.008.248-.024.36h-10.824v-1.656h9.624l-.936.576c.016-.816-.152-1.544-.504-2.184a3.743 3.743 0 0 0-1.464-1.488c-.608-.368-1.32-.552-2.136-.552-.8 0-1.512.184-2.136.552a3.705 3.705 0 0 0-1.464 1.512c-.352.64-.528 1.376-.528 2.208v.384c0 .848.192 1.608.576 2.28.4.656.952 1.168 1.656 1.536.704.368 1.512.552 2.424.552.752 0 1.432-.128 2.04-.384a4.47 4.47 0 0 0 1.632-1.152l1.272 1.488a5.554 5.554 0 0 1-2.16 1.536c-.848.352-1.8.528-2.856.528Zm15.775 0c-1.088 0-2.072-.24-2.952-.72-.864-.496-1.552-1.224-2.064-2.184-.496-.96-.744-2.16-.744-3.6s.256-2.64.768-3.6c.528-.96 1.224-1.68 2.088-2.16.88-.48 1.848-.72 2.904-.72 1.248 0 2.352.272 3.312.816a6 6 0 0 1 2.28 2.28c.56.96.84 2.088.84 3.384 0 1.296-.28 2.432-.84 3.408a6 6 0 0 1-2.28 2.28c-.96.544-2.064.816-3.312.816ZM195.059 19V1.192h2.304v8.472l-.24 2.952.144 2.952V19h-2.208Zm6.552-1.872c.816 0 1.544-.184 2.184-.552a3.896 3.896 0 0 0 1.536-1.56c.384-.688.576-1.48.576-2.376 0-.912-.192-1.696-.576-2.352a3.896 3.896 0 0 0-1.536-1.56c-.64-.368-1.368-.552-2.184-.552-.8 0-1.528.184-2.184.552a4.111 4.111 0 0 0-1.536 1.56c-.368.656-.552 1.44-.552 2.352 0 .896.184 1.688.552 2.376a4.111 4.111 0 0 0 1.536 1.56 4.387 4.387 0 0 0 2.184.552Zm15.255 2.016c-1.28 0-2.416-.28-3.408-.84A6.253 6.253 0 0 1 211.106 16c-.576-.992-.864-2.112-.864-3.36 0-1.264.288-2.384.864-3.36A6.076 6.076 0 0 1 213.458 7c.992-.56 2.128-.84 3.408-.84 1.264 0 2.392.28 3.384.84a5.867 5.867 0 0 1 2.352 2.28c.576.96.864 2.08.864 3.36 0 1.264-.288 2.384-.864 3.36a6.031 6.031 0 0 1-2.352 2.304c-.992.56-2.12.84-3.384.84Zm0-2.016c.816 0 1.544-.184 2.184-.552a3.896 3.896 0 0 0 1.536-1.56c.368-.688.552-1.48.552-2.376 0-.912-.184-1.696-.552-2.352a3.896 3.896 0 0 0-1.536-1.56c-.64-.368-1.368-.552-2.184-.552-.816 0-1.544.184-2.184.552a4.111 4.111 0 0 0-1.536 1.56c-.384.656-.576 1.44-.576 2.352 0 .896.192 1.688.576 2.376a4.111 4.111 0 0 0 1.536 1.56c.64.368 1.368.552 2.184.552Zm15.235 2.016c-1.28 0-2.416-.28-3.408-.84A6.253 6.253 0 0 1 226.341 16c-.576-.992-.864-2.112-.864-3.36 0-1.264.288-2.384.864-3.36A6.076 6.076 0 0 1 228.693 7c.992-.56 2.128-.84 3.408-.84 1.264 0 2.392.28 3.384.84a5.867 5.867 0 0 1 2.352 2.28c.576.96.864 2.08.864 3.36 0 1.264-.288 2.384-.864 3.36a6.031 6.031 0 0 1-2.352 2.304c-.992.56-2.12.84-3.384.84Zm0-2.016c.816 0 1.544-.184 2.184-.552a3.896 3.896 0 0 0 1.536-1.56c.368-.688.552-1.48.552-2.376 0-.912-.184-1.696-.552-2.352a3.896 3.896 0 0 0-1.536-1.56c-.64-.368-1.368-.552-2.184-.552-.816 0-1.544.184-2.184.552a4.111 4.111 0 0 0-1.536 1.56c-.384.656-.576 1.44-.576 2.352 0 .896.192 1.688.576 2.376a4.111 4.111 0 0 0 1.536 1.56c.64.368 1.368.552 2.184.552Zm11.658-1.2.048-2.952 7.32-6.696h2.784l-5.616 5.52-1.248 1.056-3.288 3.072ZM241.887 19V1.192h2.304V19h-2.304Zm9.72 0-4.992-6.192 1.488-1.848 6.336 8.04h-2.832Z" fill="#fff"/>
</svg>
